<?xml version="1.0" encoding="utf-8"?>
<!-- Generator: Adobe Illustrator 25.2.3, SVG Export Plug-In . SVG Version: 6.00 Build 0)  -->
<svg version="1.1" id="Layer_1" xmlns="http://www.w3.org/2000/svg" xmlns:xlink="http://www.w3.org/1999/xlink" x="0px" y="0px"
	 viewBox="0 0 2000 1943" style="enable-background:new 0 0 2000 1943;" xml:space="preserve">
<style type="text/css">
	.st0{fill:#FFFFFF;}
	.st1{fill:#C69723;}
</style>
<desc>Created with Sketch.</desc>
<g id="Page-1">
	<g id="Group" transform="translate(0.400000, 0.000000)">
		<path id="Shape" class="st0" d="M1293.6,0.1c-36.7,0.8-65.9,31.5-65,68.3c0.9,36.7,31.5,65.9,68.3,64.8
			c36.7-0.9,65.9-31.5,64.9-68.2C1361,28.3,1330.3-0.9,1293.6,0.1 M1296.7,125.4c-32.4,0.8-59.4-25-60.1-57.2
			c-0.8-32.5,24.9-59.4,57.3-60.2s59.4,24.8,60.1,57.2C1354.8,97.6,1329.1,124.6,1296.7,125.4"/>
		<polygon id="Path" class="st0" points="1251.8,53.1 1264.8,53.1 1264.8,94 1273.5,94 1273.5,53.1 1286.7,53.1 1286.7,45.2 
			1251.8,45.2 		"/>
		<polygon id="Path_1_" class="st0" points="1312.1,72.9 1297.7,45.2 1289,45.2 1289,94 1297.7,94 1297.7,62.1 1308.1,82.6 
			1316.2,82.6 1326.4,62.1 1326.4,94 1335.3,94 1335.3,45.2 1326.4,45.2 		"/>
		<path id="Path_2_" class="st0" d="M963.2,358.5c-10.5-30.3-49.1-48.5-83.8-49.7c15.1-9.7,29.2-20,28.9-19.9
			c5,11.8,34.7,40,103.5,21.1c-22.1-43.3-78.6-37.9-79.2-37.7c13.6-10.1,17.6-13.6,28.1-21.9c1,0.5,33,45,88.8,14.1
			c-16.9-25.7-41.6-39.3-67.2-32.5c7.6-7.5,13.9-12.9,20.3-19.9c-2.5,6.4,41.5,29.6,80.2-0.4c-18.6-18-38.9-22.4-60.8-21.1
			c4.4-6.4,5.6-5.9,11.6-13.7c0,0,34.5,25.8,67.2-6.2c-26.6-19.8-57.4-7.2-57.5-7.2l12.7-19.4c5.5,7.4,42.8,14.5,55.9-10.6
			c-10.8-10.4-44.2-6.9-47.7-4.4c1.1-0.9,4-8.1,6.1-11.9c69,8.5,45.3-72,29.8-117.2C840,395.9,494.2,115.8,71.3,364.7
			c-19.7,51.4-27,105.1-21.8,161c0.6,5.5,0.6,9.9,2.8,22.2c-0.9,3.8,4.7,34.5,15.9,68.4c8.4,24.3,17.8,40.6,28.2,65.6
			c6.1-4.6,13.2-10,18-14.2c-18.9-26.8-82.5-189.8-3.5-284.9c74.9-1.3,83.4,213.3,70.8,236.1c0.5,0,34.9-23.1,48.2-31.3
			c-16-6.4-72.7-192.9,21.9-270.4c0,0,84.4,32.4,49.3,229.1c14.4-9.4,34.5-18,54.3-28.1c-10.8-18.8-68.4-159.6,23.9-233.1
			c49.7,20.4,47.1,174.2,27.7,207.8c15.9-7.4,33-16.4,49-23.6c-29.2-13.4-26.9-158.2,22.3-197.7c54.7,51.5,41.4,138,27.7,176
			c0,0,41.4-17.2,41.1-17.1c-32.6-61.5-17.4-136,17.4-165.4c26.7,17.2,34,66.8,21.8,148.9c11.7-4.7,18.3-8.1,29.6-12.3
			c-7.1-13.5-25.8-97.4,22.2-142.6c43,20.5,27.8,113.9,24.6,123.3c0.4-0.7,25.2-9.8,24.9-10.6c-8.5-18.2-14.4-87.1,25.2-120.4
			c15.8,11.3,32.5,42.7,17.5,102.1c9.2-4.5,19.1-8.4,28.6-12.8c-13.5-15-3.8-75.6,16.6-99.8c24.1,10.7,34.6,63.1,25.9,80.5
			c6-3.1,13.8-6.9,23.7-12.5c-7.8-12.3-10.3-68.7,13.5-84.1c23.3,16.1,20.9,57.3,20,66.6c6.7-4.3,26.2-14.3,25.7-14.6
			c-13-11.5-19.1-49.4,8.6-72.2c24,5.3,24.5,50.3,22.3,53.2c9.4-6.1,24.2-16.9,31.8-22.5c-21.9-4.7-19.4-40.2-7.5-55.9
			c14.6,3,24.9,11.9,29.7,38c5.7-5.2,19-16,23.1-20.9c-13.3-1-29.9-30-9.4-49.1c6.1,2.6,25.2,10.7,27,31.2
			c2.7-1.9,12.8-14.6,14.4-16.9c-9.3-3.4-19.4-31.2-9.9-43.3c12.6-1.2,23.8,15.9,25.7,23.1l12.2-17.9c-7.1-5.8-21.7-22.5-8.7-37.1
			c14.1,0.7,19.2,11.4,22.3,21.6c-143,281-721.2,329.3-1023,667.5c0,0-31.4,32.8-31.4,48.6l-0.1,114.1h6.3
			c15.2-42.9,64-152.1,162.2-231.7c2-2.4,42.6,161.5,268.7,133.5c-44.3-106.8-182.5-176.6-214.4-178.5c6.1-4.7,45.9-34.4,52.3-38
			c-8.6,28.9,121.1,149.4,221.5,116C481.3,658,371,588.9,342.6,587.8c11.9-6.1,23.9-15.6,36.3-21.5
			c-6.6,15.5,88.7,108.7,190.7,101.2c1-48.4-109.4-140.8-130.7-133.5c10.1-5.4,25.7-14.5,30.4-16.9
			c14.5,33.3,108.6,104.6,173.3,92.9c-53-112.2-120.5-118.9-121.1-119c18-8.5,28.5-14,31.7-15.4c0.2,30.1,92.9,98,157.6,82.1
			c-13.1-50-64-98.6-114.1-103.3c11.9-5.6,25.2-11.9,34.2-16.2c-5.3,9.5,73.1,74.8,147.3,70.7c-35.9-86.9-85-88.8-102.5-92.1
			c9.9-4.5,20.7-10.5,31.3-16c4.2,11.1,44.7,68.5,142.4,54c-24.6-53-76.3-70.7-103.3-72.6c13.9-8.2,24.3-11.7,34.4-17.3
			c6.9,8.1,31.2,59.8,130.4,40.9c-21-50.3-66.6-62.2-84.3-65.7c8.4-5.1,18.4-10.5,25-14.4C858.2,337.4,908.8,373.6,963.2,358.5"/>
		<path id="Shape_1_" class="st0" d="M217.4,1134.9c0-73.2-39.9-112.4-108.7-112.4S0,1061.7,0,1134.9c0,61.1,28.2,98.8,77.6,109.1
			c7.7,46.9,37.7,70.3,100.3,71l13.5-64.1c-4.7,1.5-12.1,2.9-22,2.9c-14.3,0-28.9-4-34.4-11.7
			C185.6,1234.1,217.4,1196.8,217.4,1134.9 M108.7,1184.4c-22.7,0-30.4-17.9-30.4-49.4c0-31.9,7.7-49.8,30.4-49.8
			s30.4,17.9,30.4,49.8C139.1,1166.4,131.4,1184.4,108.7,1184.4"/>
		<path id="Path_3_" class="st0" d="M331.2,1026.9v132.2c0,66.6,42.5,87.9,99.2,87.9s99.2-21.2,99.2-87.9v-132.2h-75v124.5
			c0,17.2-3.7,34.4-24.2,34.4s-24.2-17.2-24.2-34.4v-124.5H331.2z"/>
		<path id="Shape_2_" class="st0" d="M693.6,1026.9l-70.7,215.6h74.7l8.8-29.3h71l9.5,29.3h77.6l-71-215.6H693.6z M723.2,1157.3
			l7.7-29.7c6.2-23.4,9.5-42.1,9.5-42.1h1.5c0,0,4.4,18.7,10.6,42.1l7.7,29.7H723.2z"/>
		<polygon id="Path_4_" class="st0" points="971,1026.9 971,1242.6 1121.1,1242.6 1121.1,1178.1 1046,1178.1 1046,1026.9 		"/>
		<path id="Path_5_" class="st0" d="M137.3,1465.5c-9.9,17.9-12.4,27.8-12.4,27.8h-1.5c0,0-2.9-9.9-12.4-27.8l-48-90.8H20.2v215.6
			h39.2v-115.7c0-25.3-2.2-38.1-2.2-38.1h1.4c0,0,4.4,14.3,16.5,35.9l37,66.3h22.7l37-66.3c12.1-21.6,16.1-35.9,16.1-35.9h1.5
			c0,0-1.8,12.8-1.8,38.1v115.7h39.2v-215.6h-41.7L137.3,1465.5z"/>
		<path id="Shape_3_" class="st0" d="M417.1,1374.7l-78.3,215.6h40.6l19-54.2h86.1l19,54.2h42.1l-78.3-215.6H417.1z M409.4,1503.6
			l14.3-40.6c11.7-34.1,16.8-57.9,16.8-57.9h1.5c0,0,4.8,24.2,16.8,58.2l13.9,40.3H409.4z"/>
		<path id="Shape_4_" class="st0" d="M806.7,1525.9c-5.9-22-16.8-30.7-37-33.7v-0.7c27.5-2.2,49.1-20.2,49.1-53.8
			c0-43.2-26.4-63-75.4-63h-78v215.6h39.2v-83.8H731c19.4,0,30.7,4.4,36.6,27.5l8.4,35.5c1.8,8.8,4.4,15.4,10.2,20.9H829
			c-5.9-7-9.2-14.3-11.3-22.7L806.7,1525.9z M741.6,1474.3h-37v-66.6h37c24.9,0,36.6,12.1,36.6,33.3
			C778.2,1464.1,766.1,1474.3,741.6,1474.3L741.6,1474.3z"/>
		<polygon id="Path_6_" class="st0" points="1122.9,1374.7 1077.5,1374.7 1017.5,1464.1 1001.4,1464.1 1001.4,1374.7 962.2,1374.7 
			962.2,1590.4 1001.4,1590.4 1001.4,1497.7 1016.8,1497.7 1081.2,1590.4 1128.8,1590.4 1050.1,1479.4 		"/>
		<rect id="Rectangle" x="20.2" y="1716.6" class="st1" width="1113" height="209.6"/>
		<path id="Path_7_" class="st0" d="M1443.3,1547.8c41.1-105.5,143.6-180.4,263.5-180.4c119.8,0,222.4,75,263.5,180.4h11.1
			c-41.6-111.3-148.9-190.7-274.5-190.7s-232.9,79.4-274.6,190.7H1443.3z"/>
		<path id="Path_8_" class="st0" d="M1962.3,1770.8c-45.4,95.6-142.8,161.9-255.5,161.9c-112.7,0-210.2-66.3-255.6-161.9h-11.3
			c46.1,101.4,148.3,172.2,266.8,172.2s220.7-70.8,266.8-172.2H1962.3z"/>
		<path id="Path_9_" class="st0" d="M1600.6,1603.7c2,9.4,3.1,18.6,3.1,18.6h0.5c0,0,0.9-9.4,2.8-18.5l7.3-36.2h15.4l-14.4,65.5h-22
			l-7.4-32.4c-2.1-9.3-2.6-18.4-2.6-18.4h-0.4c0,0-0.5,9.1-2.8,18.4l-7.8,32.3h-21.2l-14.5-65.5h16l7.6,36.1c2,9.4,3,18.6,3,18.6
			h0.4c0,0,1-9.4,2.9-18.5l8-36.2h18L1600.6,1603.7z"/>
		<path id="Shape_5_" class="st0" d="M1689,1619.5h-24.8l-4.7,13.7h-15.8l23.7-65.5h18.7l23.9,65.5h-16.2L1689,1619.5z
			 M1668.5,1606.9h16.1l-2.7-7.3c-3.8-10.8-5.1-18.7-5.1-18.7h-0.4c0,0-1.6,8-5.3,18.6L1668.5,1606.9z"/>
		<path id="Shape_6_" class="st0" d="M1770.1,1633.1c-2-1.5-2.8-4-3.5-6.8l-2.4-9.8c-1.3-5.6-3.9-6.6-8.9-6.6h-6.4v23.1h-15.1v-65.5
			h25.8c14.7,0,23.8,5.3,23.8,20c0,10.1-5.9,15.6-14.4,16.5v0.2c6,1,9.3,3.6,10.9,9.6l3.3,12.2c0.7,2.6,1.5,4.8,3.7,7L1770.1,1633.1
			L1770.1,1633.1z M1748.9,1597.6h9.7c6,0,9.4-2.3,9.4-8.6c0-5.6-3.1-8.6-9.4-8.6h-9.7V1597.6z"/>
		<path id="Path_10_" class="st0" d="M1840.9,1618l-9-15c-3.4-5.4-5-10-5-10h-0.4c0,0,0.7,3.7,0.7,11.1v29h-15.1v-65.5h15.4
			l12.3,22.1c3.8,6.5,4.7,9.6,4.7,9.6h0.4c0,0,1-3.1,4.7-9.6l12.4-22.1h15.1v65.5h-15v-29c0-7.4,0.5-11.1,0.5-11.1h-0.4
			c0,0-1.5,4.6-4.9,10l-9.1,15H1840.9z"/>
		<path id="Path_11_" class="st0" d="M1485.3,1707c2,9.4,3.1,18.6,3.1,18.6h0.5c0,0,0.9-9.4,2.8-18.5l7.3-36.2h15.4l-14.4,65.5h-22
			l-7.5-32.4c-2.1-9.3-2.5-18.4-2.5-18.4h-0.4c0,0-0.5,9.1-2.8,18.4l-7.8,32.3h-21.4l-14.4-65.5h16l7.6,36.1c2,9.4,3,18.6,3,18.6
			h0.4c0,0,1-9.4,2.9-18.5l8-36.2h18L1485.3,1707z"/>
		<polygon id="Path_12_" class="st0" points="1584.5,1736.4 1540.6,1736.4 1540.6,1670.9 1584.5,1670.9 1584.5,1684.1 
			1555.7,1684.1 1555.7,1697 1581.1,1697 1581.1,1709.6 1555.7,1709.6 1555.7,1723.3 1584.5,1723.3 		"/>
		<polygon id="Path_13_" class="st0" points="1633.6,1670.9 1633.6,1723.3 1659.2,1723.3 1659.2,1736.4 1618.5,1736.4 
			1618.5,1670.9 		"/>
		<path id="Path_14_" class="st0" d="M1737.6,1722.7c-5.9,10.1-13.6,15-28.1,15c-17.8,0-30-12.3-30-34.1c0-21.8,12-34,32-34
			c13.5,0,21.9,6.1,26.7,16.6l-14.6,7.1c-2-6.4-5.6-10.4-12.7-10.4c-9.9,0-15.9,7.9-15.9,21c0,12.9,5.3,20.5,16.1,20.5
			c6,0,10.8-3,13.7-9.4L1737.6,1722.7z"/>
		<path id="Shape_7_" class="st0" d="M1761.3,1703.7c0-22,11.7-34.1,31.1-34.1c19.3,0,31.1,12.1,31.1,34.1
			c0,21.9-11.8,34.1-31.1,34.1C1772.9,1737.8,1761.3,1725.6,1761.3,1703.7 M1777,1704c0,12.9,5,20.8,15.4,20.8s15.5-7.9,15.5-20.8
			c0-13-5.1-20.9-15.5-20.9C1782.1,1683,1777,1691,1777,1704"/>
		<path id="Path_15_" class="st0" d="M1879.9,1721.3l-9-15c-3.4-5.4-5-10-5-10h-0.4c0,0,0.7,3.7,0.7,11.1v29h-15.1v-65.5h15.4
			l12.3,22.1c3.8,6.4,4.7,9.6,4.7,9.6h0.4c0,0,1-3.1,4.7-9.6l12.4-22.1h15.1v65.5h-15v-29c0-7.4,0.6-11.1,0.6-11.1h-0.4
			c0,0-1.6,4.6-4.9,10l-9.1,15H1879.9z"/>
		<polygon id="Path_16_" class="st0" points="1992.4,1736.4 1948.5,1736.4 1948.5,1670.9 1992.4,1670.9 1992.4,1684.1 
			1963.6,1684.1 1963.6,1697 1988.9,1697 1988.9,1709.6 1963.6,1709.6 1963.6,1723.3 1992.4,1723.3 		"/>
		<rect id="Rectangle_1_" x="1414.5" y="1598.7" class="st0" width="80" height="8.9"/>
		<rect id="Rectangle_2_" x="1919.1" y="1598.7" class="st0" width="80" height="8.9"/>
		<path id="Path_17_" class="st0" d="M1443.3,873c41.1-105.5,143.6-180.4,263.5-180.4c119.8,0,222.4,75,263.5,180.4h11.1
			c-41.6-111.3-148.9-190.7-274.5-190.7S1474,761.7,1432.3,873H1443.3z"/>
		<path id="Path_18_" class="st0" d="M1962.3,1096c-45.4,95.6-142.8,161.9-255.5,161.9c-112.7,0-210.2-66.3-255.6-161.9h-11.3
			c46.1,101.4,148.3,172.2,266.8,172.2s220.7-70.8,266.8-172.2H1962.3z"/>
		<path id="Path_19_" class="st0" d="M1569.9,937.6c1.2,6.4,6,10.6,12.2,10.6c5,0,8.7-2,8.7-6.4c0-4.2-2.3-6.2-10.9-8.9
			c-15-4.8-21.2-10.4-21.2-21.7c0-14.8,11.6-19.7,23-19.7c13.5,0,23.4,4.6,24.8,17l-15,3.8c-0.5-5.8-4.9-8.3-9.4-8.3
			c-4.2,0-7.6,1.9-7.6,6.1c0,4.6,3.6,6.3,11.2,8.7c13.8,4.4,20.8,9,20.8,21.6c0,14.2-11.6,19.5-25.5,19.5c-12.9,0-21.6-4.2-24.9-16
			L1569.9,937.6z"/>
		<path id="Shape_8_" class="st0" d="M1681,944.7h-24.8l-4.7,13.7h-15.8l23.7-65.5h18.7l23.9,65.5h-16.2L1681,944.7z M1660.4,932.1
			h16.1l-2.7-7.3c-3.8-10.8-5.1-18.7-5.1-18.7h-0.4c0,0-1.6,8-5.3,18.6L1660.4,932.1z"/>
		<polygon id="Path_20_" class="st0" points="1735.5,958.4 1735.5,892.8 1778.2,892.8 1778.2,906 1750.6,906 1750.6,921.7 
			1774.8,921.7 1774.8,934.2 1750.6,934.2 1750.6,958.4 		"/>
		<polygon id="Path_21_" class="st0" points="1857.5,958.4 1813.6,958.4 1813.6,892.8 1857.5,892.8 1857.5,906 1828.7,906 
			1828.7,919 1854.1,919 1854.1,931.6 1828.7,931.6 1828.7,945.2 1857.5,945.2 		"/>
		<path id="Shape_9_" class="st0" d="M1478.4,1063.2l-7.6-7.3c-5.9,4.9-12.5,7.1-22.4,7.1c-10.8,0-21.7-4.9-21.7-17.6
			c0-7.6,4.7-14.7,15.1-17.2l-3.6-3.5c-4-3.8-6.4-8.3-6.4-13.7c0-10.8,9.2-16.1,21-16.1c11.2,0,20,5.4,20,15.9
			c0,8.1-6.5,12.7-14.3,14.4l12.8,12.2c1.5-2.5,2.3-6.1,2.6-9.8l12.1,4.4c-0.8,5.1-3.4,10.7-6,13.7l9,8.1L1478.4,1063.2z
			 M1451.2,1052.1c4.8,0,8.5-1.2,11.2-4.3l-14.9-14.4c-3.6,2.4-6,5.1-6,10.2S1445.3,1052.1,1451.2,1052.1L1451.2,1052.1z
			 M1447,1010.2c0,2.6,1.1,4.1,2.9,6l4,4.2c3.5-2.6,5.3-5.9,5.3-9.5c0-3.8-2.3-6.1-6.4-6.1C1449.2,1004.8,1447,1007,1447,1010.2
			L1447,1010.2z"/>
		<path id="Path_22_" class="st0" d="M1551.6,1040.9c1.2,6.4,6,10.6,12.2,10.6c5,0,8.7-2,8.7-6.4c0-4.2-2.3-6.2-10.9-8.9
			c-15-4.8-21.2-10.5-21.2-21.7c0-14.8,11.6-19.7,23-19.7c13.4,0,23.4,4.6,24.8,17l-15,3.8c-0.5-5.8-4.9-8.3-9.5-8.3
			c-4.2,0-7.5,1.9-7.5,6.1c0,4.6,3.6,6.3,11.2,8.7c13.8,4.4,20.8,9,20.8,21.6c0,14.2-11.5,19.5-25.5,19.5c-12.9,0-21.6-4.2-24.9-16
			L1551.6,1040.9z"/>
		<path id="Shape_10_" class="st0" d="M1629.9,1028.9c0-22,11.7-34.1,31.1-34.1c19.3,0,31.1,12.1,31.1,34.1c0,21.9-11.8,34-31.1,34
			C1641.6,1063,1629.9,1050.9,1629.9,1028.9 M1645.6,1029.2c0,12.9,5,20.8,15.4,20.8s15.5-7.9,15.5-20.8c0-13-5.1-20.9-15.5-20.9
			C1650.7,1008.3,1645.6,1016.2,1645.6,1029.2"/>
		<path id="Path_23_" class="st0" d="M1786.2,996.1v43.6c0,17.7-12.4,23.3-27,23.3c-14.5,0-27-5.6-27-23.3v-43.6h15.1v39.4
			c0,9.3,2.5,14.9,11.9,14.9c9.6,0,12-5.6,12-15v-39.3H1786.2L1786.2,996.1z"/>
		<path id="Path_24_" class="st0" d="M1867.2,1027.8c3.7,5,5.4,8.8,5.4,8.8h0.4c0,0-0.3-5.6-0.3-13.9v-26.6h15.1v65.5H1874
			l-23.1-31.1c-4.2-5.6-6.2-9.7-6.2-9.7h-0.4c0,0,0.7,5.3,0.7,14.8v26h-15.1v-65.5h14.2L1867.2,1027.8z"/>
		<path id="Shape_11_" class="st0" d="M1930.8,1061.7v-65.5h24.1c18.1,0,31.9,9,31.9,32c0,24.3-14.1,33.5-32.9,33.5H1930.8z
			 M1952.5,1048.9c11.7,0,18.6-4.9,18.6-19.8c0-15.6-6.9-20.1-17.7-20.1h-7.4v39.9H1952.5z"/>
		<rect id="Rectangle_3_" x="1414.5" y="923.9" class="st0" width="80" height="8.9"/>
		<rect id="Rectangle_4_" x="1919.1" y="923.9" class="st0" width="80" height="8.9"/>
		<path id="Path_25_" class="st0" d="M1443.3,190.8c41.1-105.5,143.6-180.4,263.5-180.4c119.8,0,222.4,75,263.5,180.4h11
			C1939.8,79.5,1832.4,0,1706.8,0s-232.9,79.4-274.6,190.7h11.1V190.8z"/>
		<path id="Path_26_" class="st0" d="M1962.3,413.8c-45.4,95.6-142.8,161.9-255.5,161.9c-112.7,0-210.2-66.3-255.6-161.9h-11.3
			C1486,515.2,1588.2,586,1706.7,586s220.7-70.8,266.8-172.2H1962.3z"/>
		<polygon id="Path_27_" class="st0" points="1570.4,210.6 1570.4,263 1595.9,263 1595.9,276.1 1555.2,276.1 1555.2,210.6 		"/>
		<rect id="Rectangle_5_" x="1617.3" y="210.6" class="st0" width="15.1" height="65.5"/>
		<path id="Path_28_" class="st0" d="M1710.8,241.2v34.9h-9.4l-2.4-7.3c-3.4,5.9-10,8.7-18,8.7c-17,0-29.3-10.8-29.3-33.8
			c0-21.9,12-34.3,32-34.3c13.1,0,22.4,6.1,26.7,16.6l-14.6,7.1c-2.1-6.9-6.5-10.4-12.7-10.4c-7,0-15.9,4.8-15.9,21.2
			c0,11.8,4.4,21.2,16.1,21.2c8.8,0,12.9-4.1,12.9-9.7v-2.2h-13.6v-12H1710.8L1710.8,241.2z"/>
		<polygon id="Path_29_" class="st0" points="1734.3,276.1 1734.3,210.6 1749.4,210.6 1749.4,236.3 1774.6,236.3 1774.6,210.6 
			1789.7,210.6 1789.7,276.1 1774.6,276.1 1774.6,249.4 1749.4,249.4 1749.4,276.1 		"/>
		<polygon id="Path_30_" class="st0" points="1825.2,276.1 1825.2,223.7 1807.3,223.7 1807.3,210.6 1858.4,210.6 1858.4,223.7 
			1840.1,223.7 1840.1,276.1 		"/>
		<polygon id="Path_31_" class="st0" points="1415.1,379.4 1415.1,313.9 1457.8,313.9 1457.8,327 1430.2,327 1430.2,342.7 
			1454.3,342.7 1454.3,355.3 1430.2,355.3 1430.2,379.4 		"/>
		<path id="Shape_12_" class="st0" d="M1474.5,346.7c0-22,11.7-34.1,31.1-34.1c19.3,0,31.2,12.1,31.2,34.1
			c0,21.9-11.8,34.1-31.2,34.1C1486.2,380.7,1474.5,368.6,1474.5,346.7 M1490.2,346.9c0,12.9,5,20.8,15.4,20.8s15.5-7.9,15.5-20.8
			c0-13-5.1-20.9-15.5-20.9C1495.3,326,1490.2,333.9,1490.2,346.9"/>
		<path id="Shape_13_" class="st0" d="M1552.2,346.7c0-22,11.7-34.1,31.1-34.1c19.3,0,31.2,12.1,31.2,34.1
			c0,21.9-11.8,34.1-31.2,34.1C1563.9,380.7,1552.2,368.6,1552.2,346.7 M1567.9,346.9c0,12.9,5,20.8,15.4,20.8
			c10.4,0,15.5-7.9,15.5-20.8c0-13-5.1-20.9-15.5-20.9C1573,326,1567.9,333.9,1567.9,346.9"/>
		<polygon id="Path_32_" class="st0" points="1645.7,379.4 1645.7,327 1627.8,327 1627.8,313.9 1678.8,313.9 1678.8,327 1660.6,327 
			1660.6,379.4 		"/>
		<path id="Shape_14_" class="st0" d="M1697.6,379.4v-65.5h23.3c16.8,0,23.8,7.7,23.8,22.1c0,13.9-8.3,22.3-22.4,22.3h-9.7v21.1
			H1697.6L1697.6,379.4z M1712.8,345.9h7.8c6.6,0,9.2-3.2,9.2-9.4c0-6.8-2.9-10-9.2-10h-7.8V345.9z"/>
		<path id="Shape_15_" class="st0" d="M1799.1,379.4c-2-1.5-2.8-4-3.5-6.8l-2.4-9.8c-1.3-5.6-3.9-6.6-8.9-6.6h-6.4v23.1h-15.1v-65.5
			h25.8c14.7,0,23.8,5.3,23.8,20c0,10.1-5.9,15.6-14.4,16.5v0.2c6,1,9.3,3.6,10.9,9.6l3.3,12.2c0.7,2.5,1.5,4.8,3.7,7h-16.8V379.4z
			 M1777.8,343.8h9.7c6,0,9.4-2.3,9.4-8.6c0-5.6-3.1-8.6-9.4-8.6h-9.7V343.8z"/>
		<rect id="Rectangle_6_" x="1835.2" y="313.9" class="st0" width="15.1" height="65.5"/>
		<path id="Path_33_" class="st0" d="M1910.1,345.6c3.7,5,5.4,8.8,5.4,8.8h0.4c0,0-0.3-5.6-0.3-13.9v-26.6h15.1v65.5h-13.8
			l-23.1-31.2c-4.2-5.6-6.2-9.7-6.2-9.7h-0.4c0,0,0.7,5.3,0.7,14.8v26h-15.1v-65.5h14.2L1910.1,345.6z"/>
		<polygon id="Path_34_" class="st0" points="1966.1,379.4 1966.1,327 1948.2,327 1948.2,313.9 1999.2,313.9 1999.2,327 1981,327 
			1981,379.4 		"/>
		<rect id="Rectangle_7_" x="1414.5" y="241.7" class="st0" width="80" height="8.9"/>
		<rect id="Rectangle_8_" x="1919.1" y="241.7" class="st0" width="80" height="8.9"/>
		<path id="Path_35_" class="st0" d="M188.5,1819.5v61.6h-14.8l-2.4-15.4c-4.9,11.7-19,17.8-32.8,17.8c-30.6,0-51.8-21.2-51.8-61.5
			c0-39.9,22.5-62.5,55.7-62.5c22.7,0,37.2,9.5,44.7,28.8l-17.4,8.5c-4.9-14.4-15.4-21.2-28.3-21.2c-20.8,0-35.2,16.4-35.2,46.5
			c0,26.9,10.9,46.2,34.2,46.2c16,0,29.8-7.5,29.8-23.5v-8.9h-29v-16.2h47.3V1819.5z"/>
		<path id="Shape_16_" class="st0" d="M270.8,1821.5c0-39.9,21-62.1,53.8-62.1s53.6,22.2,53.6,62.1c0,39.7-20.8,61.9-53.6,61.9
			C291.9,1883.4,270.8,1861.2,270.8,1821.5 M290.5,1821.5c0,28.5,11.7,45.8,34.2,45.8s34-17.2,34-45.8c0-28.3-11.7-45.8-34-45.8
			C302.2,1775.7,290.5,1793.1,290.5,1821.5"/>
		<polygon id="Path_36_" class="st0" points="483.3,1761.8 483.3,1864.8 536.8,1864.8 536.8,1881 464.7,1881 464.7,1761.8 		"/>
		<path id="Shape_17_" class="st0" d="M618.7,1881v-119.2h37c33.4,0,57.5,16.4,57.5,58.3c0,44.1-26.3,60.9-58.1,60.9H618.7z
			 M653.3,1865.4c23.5,0,40.3-12.5,40.3-44.5c0-33.4-17.4-43.5-38.5-43.5h-17.8v88H653.3z"/>
	</g>
</g>
</svg>
